<svg xmlns="http://www.w3.org/2000/svg" id="_0085_winner_2" class="show_show__wrapper__graphic__5Waiy" transform="scale(1)" viewBox="0 0 500 500"><title>React</title><defs><style>.cls-1{fill:#d6b2a4}.cls-2{fill:#fff}.cls-3{fill:#3c4368}.cls-4{fill:#ffde91}.cls-5{fill:#af93a2}.cls-6{fill:#292e54}.cls-7{fill:#e6e7e8}</style></defs><g id="number-1"><path d="M229.36,16.23l3.7,1.95c2.22,1.17,4.94,.72,6.67-1.09l6.67-7.01c2.37-2.49,6.4-2.28,8.49,.45l3.75,4.89c1.51,1.97,4.14,2.71,6.45,1.81l6.07-2.34c3.72-1.44,7.74,1.38,7.62,5.37-.06,1.73-.17,3.45-.36,5.17-.26,2.45,1.03,4.8,3.29,5.78,2.18,.95,4.29,2.06,6.3,3.31,2.97,1.85,3.49,5.98,1.1,8.55l-2.34,2.52c-1.78,1.91-2,4.8-.53,6.96l4.73,6.95c1.75,2.57,1.07,6.07-1.51,7.8l-5.03,3.37c-1.88,1.26-2.82,3.53-2.37,5.76l1.33,6.57c.79,3.93-2.67,7.38-6.6,6.6-1.57-.31-3.12-.7-4.64-1.16-2.24-.68-4.65,.18-6.04,2.07l-5.58,7.59c-2.19,2.98-6.62,3.05-8.91,.14l-3.35-4.26c-1.84-2.34-5.2-2.83-7.63-1.11l-5.36,3.79c-3.2,2.26-7.67,.63-8.65-3.16l-.81-3.11c-.65-2.48-2.9-4.24-5.46-4.18-1.57,.03-3.14-.01-4.71-.13-4.13-.3-6.53-4.81-4.46-8.39l.44-.76c1.22-2.11,.93-4.76-.71-6.56-2.03-2.23-3.98-4.53-5.85-6.9-2.24-2.84-1.23-7.04,2.05-8.55h0c3.07-1.42,4.24-5.25,2.38-8.08-1.62-2.46-3.07-5.02-4.36-7.67-1.46-3,.09-6.59,3.24-7.68,2.98-1.03,6.2-2.16,8.45-2.95,1.86-.66,3.22-2.23,3.62-4.17,.24-1.2,.53-2.65,.8-4.14,.67-3.73,4.77-5.74,8.12-3.97Z" class="cls-1"/><g><path d="M246.83,52.89c-.17-2.57-3.32-3.49-5.2-1.61,.96-3.13,1.33-6.42,1.06-9.51-.11-1.25-.57-2.68-1.68-2.51-.93,.14-1.66,1.33-2.11,2.39-1.32,3.08-1.93,6.37-1.75,9.39l-4.49,.36c.23-2.44,.05-4.86-.53-7.06-.28-1.07-.77-2.21-2.02-1.75-1.04,.38-1.77,1.72-1.76,2.97,.06,8.52-1.48,2.08-4.36,5.5-1.02,1.21-1.41,2.94-.95,4.35,.8,2.43,3.34,2.62,5.21,1.21l.08,7.35c-1.34-1.7-4.34-.39-4.77,2.03-.43,2.39,1.91,4.47,3.76,3.31-.79,1.92-1.6,3.98-.96,5.99,.39,1.22,1.48,2,2.59,1.63,1.81-.61,2.02-3.48,1.83-5.63l5.27,.79c-.57,1.69-.72,3.5-.45,5.18,.29,1.84,2.44,2.12,3.32,.42,1.14-2.19,1.68-4.76,1.43-7.21,1.98,1.32,5.35-.83,5.52-3.59,.17-2.79-3.02-4.52-5.19-2.88l1.37-6.78c1.98,.87,4.95-1.78,4.78-4.33Zm-9.61,7.2c-.22,1.81-.43,3.61-.65,5.4-1.86,.52-4.37,.64-5.19-1.13-.82-1.76,.06-5.33,1.31-7.12l-.04,.2c1.96-.78,3.54-.73,4.41,.68,.32,.52,.25,1.28,.16,1.96Z" class="cls-2"/><path d="M249.06,44.03c.5,1.37,2,1.89,3.48,1.65,1.51-.25,3.02-1.15,4.48-2.1-1.25,10.69-1.7,20.96-1.37,30.82-1.79-.5-3.67-.99-5.49-.46-1.79,.53-3.45,2.44-3.08,4.25,.44,2.15,3.08,2.61,5.27,2.66,5.07,.12,10.6,.21,15.96-1.98,2.37-.97,5.04-3.05,4.64-5.39-.24-1.41-1.61-2.32-3.07-2.55-1.44-.23-2.97,.09-4.44,.39,.75-10.94,1.54-22.24,2.34-33.94,.36-5.26-1.82-13.17-8.55-7.76-3.23,2.6-11.63,10.37-10.17,14.42Z" class="cls-2"/></g></g><g id="shadow"><path d="M81.75,455.16c-5.57,1.19-12.01,3.32-13.68,8.76-1.36,4.43,1.35,9.29,5.18,11.89,3.84,2.6,8.56,3.43,13.13,4.16,100.63,16.02,203.53,10.63,304.7-1.63,15.42-1.87,31.4-4.1,44.45-12.53,3.02-1.95,6.15-4.88,5.75-8.46-.53-4.81-6.58-6.5-11.39-7-46.35-4.87-92.95-7.42-139.55-7.64-43.73-.21-87.32,4.56-130.95,4.45-26.09-.06-52.13,2.55-77.64,8.01Z" class="cls-7"/></g><g id="character-1"><g><path d="M166.02,113.05c4.78,.66,10.12,.07,13.96,3,3.56,2.71,4.6,7.61,4.69,12.09,.16,8.03-2.63,16.93-9.72,20.69-5.44,2.88-12,2.07-18.13,1.51-6.13-.56-12.94-.58-17.64,3.4-4.55,3.85-5.74,10.25-8.51,15.52-5.01,9.52-16.12,15.44-26.81,14.28-6.31-.68-12.94-4.4-14.36-10.59-1.46-6.4,3.02-12.61,3.68-19.14,1.17-11.59-9.58-21.21-10.8-32.8-.57-5.42,1.06-10.92,3.9-15.57,2.84-4.64,6.85-8.49,11.22-11.74,7.76-5.78,17.18-9.92,26.84-9.38,6.88,.38,13.79,3.5,18.29,8.79,2.01,2.37,3.06,5.26,4.87,7.75,2.05,2.83,4.29,5.49,7.14,7.55,3.34,2.43,7.27,4.06,11.37,4.63Z" class="cls-6"/><path d="M152.38,93.81c9.1,16.57,12.02,36.05,10.68,54.9-.2,2.75-.49,5.54-1.5,8.11-1.01,2.57-2.84,4.92-5.38,6.01-3.64,1.56-7.84,.26-11.4-1.48-10.65-5.19-19.03-13.98-27.7-22.05-3.72-3.47-7.59-6.89-10.33-11.18-2.74-4.29-4.26-9.66-2.79-14.53,1.13-3.74,3.86-6.78,6.69-9.47,4.28-4.06,9-7.67,14.05-10.74,4.17-2.53,9.92-4.8,14.67-6.09,6.05-1.65,10.21,1.39,13.03,6.51Z" class="cls-4"/><path d="M149.97,121.71c.03-.36,.18-.82,.54-.83,.28-.01,.48,.26,.62,.51,.52,.9,3.73,6,1.61,6.79-1.95,.72-2.86-5.36-2.77-6.46Z" class="cls-6"/><path d="M141.03,127.93c-.11-.31-.2-.65-.14-.98,.39-2.3,3.97,2.25,3.87,3.82-.17,2.77-3.38-1.9-3.72-2.85Z" class="cls-6"/><path d="M148.64,157.03c-.61,0-1.22-.08-1.8-.26-1.9-.57-3.52-2.07-4.22-3.93-.17-.45,.06-.96,.51-1.13,.45-.17,.96,.06,1.13,.51,.51,1.36,1.69,2.45,3.08,2.87,1.39,.41,2.97,.14,4.14-.72,.39-.29,.94-.2,1.23,.19,.29,.39,.2,.94-.19,1.23-1.11,.82-2.5,1.25-3.88,1.25Z" class="cls-6"/><path d="M107.47,90.29c-2,4.01-3.78,8.18-4.65,12.58s-.78,9.07,.87,13.24c2.13,5.37,6.71,9.67,7.92,15.31,.31,1.46,.33,3.15-.68,4.25-.82,.89-2.09,1.16-3.29,1.31-4.74,.59-9.66-.04-13.99-2.04-4.33-2-8.05-5.41-10.19-9.68-2.46-4.89-2.77-10.63-1.97-16.04,.46-3.09,1.28-6.17,2.88-8.85,1.69-2.83,4.16-5.1,6.7-7.19,3.76-3.09,7.91-4.82,12.02-7.28,1.13-.68,2.63-1.85,3.98-1.07,2.07,1.19,1.22,3.82,.41,5.45Z" class="cls-6"/><path d="M120.77,86.2c-.36,.95-.98,1.78-1.59,2.6-2.68,3.63-5.18,7.42-6.95,11.57-1.77,4.15-2.79,8.68-2.42,13.17,.25,3.09,1.14,6.09,2.23,8.98,.29,.78,.6,1.57,.62,2.4,.02,.83-.31,1.72-1.04,2.14-1.23,.7-2.72-.28-3.71-1.28-4.83-4.84-7.8-11.49-8.21-18.32-.4-6.83,1.78-13.77,6-19.15,2.32-2.96,5.42-5.17,8.96-6.48,2.96-1.09,7.55,.54,6.11,4.37Z" class="cls-1"/><path d="M127.49,126.5c5.76-.55,11.49-2.13,16.39-5.2,9.87-6.19,15.3-17.85,16.59-29.43,.66-5.9,.31-12.17-2.71-17.28-1.61-2.71-4.06-5.07-7.12-5.86-3.32-.85-6.82,.23-9.95,1.61-8.7,3.82-16.2,9.86-23.59,15.82-3.29,2.66-6.64,5.38-8.96,8.93-2.87,4.41-3.93,9.86-3.46,15.1,.42,4.6,1.97,9.06,4.15,13.11,1.94,3.61,5.99,3.15,9.69,3.34,2.98,.15,5.98,.14,8.96-.14Z" class="cls-6"/></g><path d="M168.07,166.65c3.28,.64,6.66,1.81,9.87,.87,2.98-.88,5.49-3.52,8.59-3.31,2.55,.17,4.63,2.37,5.36,4.82,.74,2.45,.39,5.09-.16,7.59-1.06,4.78-2.85,9.39-5.29,13.63-1.34,2.33-3.25,4.77-5.93,4.95-1.73,.11-3.35-.76-4.84-1.66-5.53-3.34-13.79-7.94-16.52-14.16-3.39-7.7,.02-14.48,8.92-12.73Z" class="cls-1"/><path d="M200.1,157.72c3.81-5.61,5.27-12.53,5.51-19.3s-.67-13.53-1.2-20.29c-.18-2.36,.3-5.52,2.64-5.82,1.58-.2,2.97,1.29,3.24,2.86s-.24,3.15-.76,4.66c8.8-3.14,17.59-6.28,26.39-9.42,2.66-.95,5.75-1.86,8.16-.39,2.88,1.76,2.98,6.24,.96,8.95-2.02,2.71-5.43,3.98-8.72,4.72,.08,3.86-3.02,7.06-6.33,9.05-3.3,2-7.07,3.33-9.88,5.97-4.38,4.11-5.58,10.46-8.05,15.93-3.39,7.51-9.54,13.73-17.02,17.18-2.79,1.29-7.19,2.79-10.11,.93-2.92-1.86-2.2-3.39,.52-5.11,5.5-3.48,10.63-4.05,14.63-9.94Z" class="cls-4"/><path d="M142.93,183.83c.34-3.95,1.02-8.3,4.06-10.86,3.31-2.79,8.15-2.45,12.45-1.96,7.76,.89,16.58,2.44,20.67,9.08,2.87,4.65,2.52,10.52,2.09,15.97-.49,6.12-1,12.32-3.07,18.1-2.36,6.6-6.88,12.25-13.61,14.64-4.7,1.67-13.04,4.1-17.76,1.2-5.51-3.39-4.72-13.39-5.09-18.9-.61-9.08-.53-18.21,.26-27.28Z" class="cls-5"/><path d="M138.49,181.94c.84-2.01,2.22-4.28,4.39-4.3,1.77-.02,3.21,1.62,3.61,3.35,.4,1.73,0,3.53-.35,5.26-1.15,5.56-1.98,11.18-2.5,16.83-.57,6.31-.23,13.77,4.95,17.42,4.1,2.89,9.86,2.13,14.28-.24,7.82-4.2,12.5-12.42,16.39-20.4,3.89-7.97,7.64-16.44,14.54-22.01,2.1-1.7,4.62-3.13,7.32-3.04,2.7,.09,5.46,2.18,5.45,4.88,3.61-4.54,11.1-5.26,15.51-1.5,4.41,3.76,4.88,11.27,.97,15.56-8.63,3.18-17.26,6.36-25.89,9.53-3.08,1.13-6.18,2.28-8.91,4.1-3.59,2.4-6.34,5.83-9.47,8.81-5.53,5.25-12.36,9.12-19.71,11.15-4.16,1.15-8.69,1.7-12.74,.18-4.74-1.78-8.1-6.2-9.81-10.96-4.16-11.58-2.66-23.48,1.98-34.61Z" class="cls-4"/><path d="M135.36,171.72c3.01-2.33,6.81-4.78,10.34-3.37,3.61,1.44,4.62,6,4.95,9.87,.29,3.47,.45,6.96,.46,10.45,0,1.92-.05,3.92-.97,5.6-1.02,1.88-3.01,3.1-5.08,3.63-2.07,.53-4.25,.46-6.39,.31-3.49-.25-7.04-.73-10.2-2.26-14.23-6.87-.55-18.48,6.89-24.23Z" class="cls-1"/><path d="M194.56,198.6l-.58-.82c6.04-4.29,10.42-10.9,12-18.14l.98,.21c-1.64,7.48-6.16,14.31-12.4,18.74Z" class="cls-2"/><path d="M217.47,129.55l-.47-.88,.86-.55,.09,.14c5.96-2.49,12.22-4.26,18.6-5.27l.16,.99c-6.62,1.05-13.09,2.92-19.24,5.57Z" class="cls-2"/><path d="M216.56,133.2l-.98-.18c.91-4.99,3.12-9.68,6.39-13.56l.76,.64c-3.15,3.75-5.29,8.27-6.17,13.09Z" class="cls-2"/></g><g id="character"><g id="character_1"><path d="M335.44,120.65c-2.74,12.86-3.92,26.18-1.97,39.18,.26,1.76,.6,3.55,1.54,5.05,.94,1.5,2.62,2.67,4.39,2.51,1.88-.17,3.31-1.71,4.54-3.14,14.69-17.13,29.57-34.55,39.07-55.02,1.35-2.91,2.6-6.26,1.44-9.25-.81-2.08-2.63-3.56-4.43-4.87-7.12-5.18-15.09-9.19-23.49-11.82-2.62-.82-7.44-2.3-9.75-.06-2.26,2.2-3.09,8.51-4.07,11.49-2.8,8.54-5.39,17.15-7.26,25.95Z" class="cls-5"/><path d="M345.04,96.05c-4.99-.33-9.95-3.3-11.82-7.94-1.87-4.64,.06-10.73,4.63-12.77-4.14-3.26-6.93-8.38-6.81-13.64s3.4-10.48,8.33-12.34c4.93-1.86,11.18,.17,13.63,4.84,2.74-6.64,10.83-10.55,17.73-8.57s11.7,9.57,10.51,16.66c4.59-.07,9.16,2.05,12.07,5.59,2.91,3.55,4.09,8.44,3.13,12.93,5.9-1.63,12.76,1.64,15.21,7.25,2.45,5.61,.19,12.86-5.01,16.09,5.26,.88,8.25,6.96,7.81,12.28-.4,4.92-3.07,9.61-7.09,12.48-4.02,2.87-9.32,3.86-14.11,2.64-.47,4.68-2.29,9.46-6,12.36s-9.54,3.32-12.97,.1c-2.48,.5-5.08,1-7.51,.3-2.43-.7-4.6-3.02-4.22-5.52,.38-2.53,2.95-3.99,4.84-5.72,2.09-1.91,3.51-4.43,4.9-6.9,2.76-4.93,5.52-9.86,8.28-14.79-3.61-2.43-5.2-7.46-3.65-11.53-.62,1.61-7.24-.02-8.28-.41-3.03-1.15-4.58-3.34-7.02-5.24-2.12-1.65-3.79-1.46-6.21-.54-3.48,1.33-6.56,2.64-10.39,2.39Z" class="cls-6"/><path d="M369.61,124.1c1.58-.48,3.19-.95,4.85-1.01,1.65-.05,3.38,.36,4.62,1.46,2.04,1.81,2.16,5.24,.55,7.44-1.61,2.2-4.6,3.15-7.29,2.71-2.69-.45-5.07-2.13-6.78-4.26" class="cls-5"/><path d="M344.19,114.67c.13,.37,.3,.73,.59,.99,.29,.26,.72,.38,1.08,.23,.5-.21,.65-.84,.7-1.37,.09-1.14-.02-2.3-.33-3.4-.14-.48-.39-1.02-.88-1.11-.3-.05-.6,.09-.81,.31-.95,.98-.73,3.2-.33,4.36Z" class="cls-6"/><path d="M355.37,116.01c.1,.29,.21,.58,.41,.82,.2,.24,.5,.41,.8,.38,.48-.04,.79-.52,.97-.96,.48-1.17,1.1-5.2-1.02-5.22-2.28-.02-1.57,3.79-1.16,4.98Z" class="cls-6"/><path d="M344.77,120.12c-.32,0-.63-.01-.93-.03-1.92-.1-3.84-.39-5.7-.87-1.18-.3-2.39-.71-3.23-1.64-.7-.77-1.09-1.88-1.12-3.13-.02-1.07,.21-2.1,.47-3.15,.46-1.88,1.11-3.75,2.7-4.68,1.17-.69,2.58-.69,3.93-.59h0l.36,.03c2.74,.2,6.15,.44,8.57,1.7,2.05,1.07,1.83,4.68,1.51,6.74-.34,2.21-1.52,4.05-3.14,4.91-1.08,.57-2.29,.71-3.42,.71Zm-5.01-13.28c-.83,0-1.66,.11-2.37,.52-1.32,.77-1.89,2.45-2.3,4.15-.25,.99-.46,1.96-.45,2.93,.02,1.04,.34,1.95,.89,2.57,.69,.76,1.76,1.12,2.81,1.38,1.81,.46,3.67,.75,5.54,.84,1.27,.07,2.72,.05,3.91-.58,1.39-.73,2.4-2.34,2.7-4.28,.18-1.15,.63-4.98-1.06-5.85-2.27-1.18-5.58-1.41-8.24-1.6l-.36-.03c-.34-.02-.7-.05-1.06-.05Z" class="cls-6"/><path d="M360.49,122.64s-.08,0-.13,0c-1.65-.02-3.25-.42-4.8-.8-1.16-.29-2.74-.68-3.72-1.82-.69-.81-1.04-1.97-.99-3.26,.05-1.12,.36-2.17,.67-3.2,.53-1.79,1.19-3.61,2.81-4.47,1.1-.59,2.41-.56,3.46-.53,2.74,.07,5.84,.14,8.54,1.43,1.06,.51,1.98,.94,2.24,2.5,.25,1.49-.22,3.03-.72,4.34-.61,1.62-1.36,3.27-2.72,4.37-1.48,1.19-3.31,1.45-4.63,1.45Zm-3.42-13.24c-.8,0-1.64,.07-2.34,.44-1.32,.71-1.91,2.34-2.39,3.96-.29,.97-.59,1.98-.63,2.99-.04,1.08,.23,2.02,.79,2.67,.74,.86,1.92,1.21,3.27,1.55,1.5,.37,3.05,.76,4.6,.78,1.68,.02,3.17-.43,4.21-1.26,1.13-.91,1.8-2.26,2.46-4,.48-1.26,.89-2.61,.67-3.89-.18-1.07-.67-1.34-1.76-1.87-2.53-1.21-5.54-1.28-8.19-1.35h0c-.23,0-.46-.01-.69-.01Z" class="cls-6"/><path d="M373.39,123.68c-.12,0-.23-.05-.31-.14-2.15-2.32-4.1-4.85-5.8-7.52-.13-.2-.07-.47,.13-.59,.2-.13,.46-.07,.59,.13,1.67,2.62,3.59,5.11,5.7,7.39,.16,.17,.15,.45-.02,.61-.08,.08-.19,.11-.29,.11Z" class="cls-6"/><path d="M352.64,111.99s-.09,0-.13-.02c-.53-.17-1.11-.2-1.65-.07-.23,.05-.46-.09-.52-.32-.05-.23,.09-.46,.32-.52,.7-.16,1.43-.13,2.11,.09,.23,.07,.35,.32,.27,.54-.06,.18-.23,.3-.41,.3Z" class="cls-6"/><path d="M345,149.93c-.72,.22-1.47,.33-2.17,.59s-1.38,.72-1.67,1.42c-.34,.83-.02,1.85,.66,2.44,.67,.6,1.63,.81,2.52,.71,.89-.1,1.74-.47,2.51-.93,1.66-.98,3.12-2.43,3.76-4.25,.34-.98,.09-4.53-1.6-3.14-.63,.51-1,1.33-1.64,1.87-.69,.58-1.5,1.02-2.36,1.29Z" class="cls-6"/></g><path d="M320.96,176.92c3.75-4.02,9.04-8.03,14.25-6.25,5.13,1.75,6.91,8.02,7.47,13.41,1.25,12.05,.1,24.34-3.35,35.95-1.03,3.45-2.31,6.94-4.72,9.62-4.53,5.04-12.23,6.17-18.81,4.53-5.27-1.31-12.55-4.32-15.87-8.89-3.14-4.33-1.33-9.52,.29-14.1,4.47-12.67,11.59-24.43,20.74-34.27Z" class="cls-4"/><path d="M295.63,124.28c-2.44-.24-4.88-.47-7.32-.71-.26,24.79,14.06,48.2,34.9,57.04,3.02,1.28,15.6,4.06,15.28-3.4-.18-4.25-10.31-6.56-13.14-8.19-10.01-5.77-18.3-14.79-23.7-25.61-.83-1.66-6.16-19.14-6.03-19.13Z" class="cls-4"/><path d="M300.15,112.25c.06-1.53,.12-3.1-.37-4.55-.49-1.45-1.65-2.78-3.16-3.01-1.7-.26-3.36,.95-4.17,2.47s-.96,3.29-1.1,5.01c-6.54-2.65-13.8-3.51-20.79-2.47-2.32,.35-4.86,1.07-6.05,3.09-1.41,2.39-.21,5.62,1.93,7.39s4.96,2.41,7.67,3c-2.55,.54-3.6,3.97-2.48,6.33,1.12,2.35,3.65,3.7,6.15,4.44,4.09,1.2,7.52,2.17,11.34,4.11,2.93,1.49,6.24,2.69,8.65-.26,2.27-2.77,1.67-7.67,1.8-10.96,.2-4.86,.39-9.72,.59-14.58Z" class="cls-5"/><path d="M341.72,203.19c4.26,6.12,10.87,11.52,19.91,14.14,9.05,2.62,20.74,2.07,29.42-2.47,7.55-3.95,11.96-10.37,13.19-16.6,1.23-6.23-.37-12.34-2.69-18.12-4.13-10.28-10.55-19.93-19-28.54-1.49-1.52-3.1-3.04-5.36-4-2.27-.96-5.34-1.26-7.94-.29-3.11,1.16-4.67,3.85-4.5,6.17s1.72,4.35,3.27,6.3c9.51,11.92,20.77,24.07,19.94,38.45-.26,4.48-2.52,9.77-8.55,11.87-6.38,2.22-13.28-.41-17.69-3.65-5.59-4.1-9.53-9.3-11.36-15-.94-2.91-1.41-6.07-4-8.33-3.98-3.48-11.98-2.5-12.17,2.68-.2,5.66,4.19,12.63,7.51,17.4Z" class="cls-4"/><path d="M406.41,146.84c7.1-6.33,11.25-15.85,11.05-25.36-.05-2.21-.63-4.84-2.7-5.61-1.55-.58-3.27,.19-4.66,1.09-4.46,2.89-7.84,7.42-9.33,12.52-.22-2.73-2.12-5.24-4.68-6.21-2.56-.96-5.65-.32-7.61,1.58-2.27,2.2-2.87,5.59-4.54,8.26-1.72,2.74-4.49,4.63-7.19,6.4-2.71,1.77-5.51,3.58-7.35,6.24-5.77,8.35,2.97,14.63,10.64,11.94,9.14-3.21,18.85-4.14,26.38-10.85Z" class="cls-5"/><path d="M289.15,124.63c-4.78-1.86-10.16-2.24-15.16-1.07l-.23-.97c5.19-1.22,10.78-.82,15.75,1.11l-.36,.93Z" class="cls-2"/><path d="M289.41,131.19c-1.76-5.13-1.47-10.89,.8-15.81l.91,.42c-2.16,4.69-2.44,10.18-.76,15.07l-.95,.32Z" class="cls-2"/><path d="M390.59,145.92l-.39-.92c6.49-2.72,10.89-9.78,10.46-16.8l1-.06c.45,7.43-4.21,14.91-11.08,17.79Z" class="cls-2"/><path d="M373.45,132.01c-.89,0-1.72-.34-2.26-.96l.75-.66c.57,.65,1.49,.71,2.16,.54,.67-.16,1.45-.64,1.66-1.48,.21-.84-.27-1.63-.79-2.08-.52-.45-1.36-.82-2.17-.51l-.36-.93c1.03-.4,2.25-.14,3.19,.69,.94,.82,1.37,2,1.11,3.07-.26,1.07-1.18,1.92-2.39,2.22-.3,.07-.59,.11-.88,.11Z" class="cls-2"/></g><g id="confetti"><path d="M395.87,27.65c2.07-2.36,6.01-2.15,8.62-.4,2.61,1.75,4.21,4.62,5.72,7.37,1.51,2.76,3.12,5.62,5.74,7.36,2.62,1.74,5.87,2.11,8.89,2.97,3.02,.87,6.18,2.6,7.05,5.62,1.76-3.94,3.53-7.87,5.29-11.81-.87-2.2-3.25-3.42-5.56-3.95-2.31-.53-4.73-.59-6.95-1.43-3.42-1.3-5.88-4.3-7.85-7.38-3.02-4.7-6.91-12.85-13.72-12.4-8.12,.54-3.75,10.09-7.23,14.05Z" class="cls-4"/><path d="M102.22,27.25c-4.54,2.51-9.51,4.19-13.93,6.9-4.42,2.71-8.41,6.78-9.28,11.89,3.11,4.02,6.22,8.04,9.34,12.07,.82-5.16,5.02-9.16,9.59-11.69,4.56-2.53,9.66-4,14.25-6.48s8.86-6.39,9.83-11.52c-.12,.64-9.12-8.23-9.32-8.27-2.87-.6-7.51,5.48-10.47,7.11Z" class="cls-3"/><path d="M71.27,190.45c-4.01-1.58-8.39-2.06-12.39-3.66-4-1.61-7.83-4.84-8.2-9.14-4.38,2.61-8.76,5.23-13.14,7.84,.97,3.74,1.96,7.53,3.87,10.9,1.91,3.36,4.87,6.3,8.6,7.32,4.38,1.2,9.1-.37,13.58,.4,4.87,.84,9.09,4.67,10.4,9.43-.47-1.69,10.44-6.3,10.04-10.92-.45-5.21-8.48-10.5-12.74-12.18Z" class="cls-4"/><path d="M444.8,215.53c5.6-.15,10.93-3.96,12.88-9.21,1.24-3.32,1.19-6.99,2.23-10.38,1.67-5.46,6.32-9.9,11.84-11.34-2.43-3.67-4.86-7.33-7.29-11-3.85,3.46-8.95,5.08-13.67,7.2s-9.5,5.18-11.28,10.04c-1.13,3.08-.9,6.48-1.64,9.68-.77,3.38-3.01,5.64-5.96,7.09,1.81,4.93,7.77,8.06,12.88,7.92Z" class="cls-3"/><path d="M35.59,123.36c-7.72-9.33-8.01-23.49-1.59-33.52-.32-.38-.63-.79-.93-1.21-4.47-6.4-4.95-15.86-1.23-24.69,3.34-7.94,9.15-14.37,14.76-20.6l.74,.67c-5.56,6.16-11.31,12.53-14.58,20.31-2.81,6.67-3.98,16.41,1.13,23.73,.22,.32,.45,.62,.69,.92,1.2-1.72,2.6-3.3,4.21-4.7,1.77-1.54,5.26-3.95,8.69-2.73,1.5,.53,2.72,1.79,3.35,3.45,.71,1.88,.59,3.97-.31,5.61-1.63,2.94-5.48,4.57-9.16,3.87-2.4-.46-4.7-1.79-6.63-3.82-5.91,9.64-5.61,23.32,1.64,32.07l-.77,.64Zm-.31-33.58c1.83,1.98,4,3.27,6.26,3.7,3.27,.63,6.67-.79,8.1-3.37,.77-1.38,.86-3.17,.25-4.77-.53-1.41-1.51-2.42-2.75-2.86-2.95-1.05-6.09,1.14-7.7,2.54-1.6,1.39-3,3-4.17,4.75Z" class="cls-1"/><path d="M462.76,136.93l-.75-.66c6.49-7.38,4.75-18.21,3.7-22.52-1.15-4.73-2.82-7.96-5.26-10.16-.18-.17-.38-.33-.58-.48,.01,2.38-.5,4.44-1.55,6.13-1.09,1.76-2.96,3.08-5.02,3.53-1.66,.36-3.28,.09-4.55-.76-1.53-1.03-2.39-2.82-2.36-4.92,.04-2.42,1.28-4.75,3.15-5.93,2.87-1.8,6.4-1.4,9.2,.05-.08-.69-.2-1.41-.37-2.15-2.2-9.98-9.93-18.37-19.69-21.4l.3-.96c10.1,3.13,18.09,11.81,20.37,22.13,.23,1.04,.38,2.04,.46,2.99,.47,.31,.9,.65,1.3,1.01,2.59,2.34,4.36,5.73,5.56,10.66,2.3,9.44,.87,17.98-3.92,23.42Zm-8.9-35.97c-1.31,0-2.61,.32-3.78,1.05-1.6,1-2.65,3-2.68,5.09-.03,1.75,.67,3.24,1.92,4.07,1.34,.9,2.8,.83,3.78,.61,1.77-.38,3.44-1.56,4.38-3.08,1.05-1.7,1.51-3.81,1.38-6.3-1.48-.89-3.24-1.45-4.99-1.45Z" class="cls-1"/></g><g id="trophy"><path d="M127.66,330.38c16.28,36,47.04,65.19,83.84,79.58,4.62,1.81,9.57,3.55,12.17,8.08,1.23,2.13,1.54,4.74,.55,6.99-1.59,3.61-5.17,4.05-8.44,4.36-12.99,1.23-25.98,2.47-38.96,3.7-10.74,1.02-21.99,2.2-30.15,10.26-4.52,4.46-6.71,10.91-5.02,17.03,3.39,12.29,19.45,14.55,32.14,14.46,54.4-.4,108.81-.81,163.21-1.21,11.08-.08,24.27-1.34,29.64-11.04,5.4-9.75-1.38-22.65-11.29-27.74-9.91-5.1-21.67-4.52-32.78-3.66s-22.78,1.77-32.95-2.79c-1.43-9.96,3.98-19.79,11.13-26.86,7.16-7.07,16.02-12.12,23.98-18.27,22.87-17.69,37.66-44.33,45.26-72.23,6.26-22.99,7.98-46.91,7.89-70.79-.03-9.31-4.38-21.53-13.32-24.13-45.72-13.28-191.97-10.86-223.02-5.84-21.15,3.42-23.83,18.73-26.17,37.29-3.53,28.02,.62,57.05,12.27,82.8Z" class="cls-3"/><path d="M75.74,254.24c-13.76,14.87-17.59,36.9-14.5,56.93,5.14,33.36,28.76,63.27,60.02,76.01,6.62,2.7,13.71,4.78,19.15,9.42,5.44,4.64,8.68,12.91,5.06,19.08-2.41-5.1-9.52-6.91-14.55-4.36-5.04,2.55-7.8,8.5-7.52,14.14,.65,13.38,17.42,22,29.88,17.07s19.1-19.64,17.7-32.97c-1.4-13.32-9.38-25.16-19-34.49-9.62-9.32-20.97-16.64-31.43-25.01-10.46-8.37-20.31-18.19-25.39-30.59-5.46-13.34-2.01-32.63,11.97-36.13,6.19-1.55,12.85,.47,19.05-1.04,16.99-4.15,15.63-29.97,3.14-37.96-16.39-10.49-41.21-3.44-53.57,9.92Z" class="cls-6"/><path d="M424.52,256.25c13.76,14.87,17.59,36.9,14.5,56.93-5.14,33.36-28.76,63.27-60.02,76.01-6.62,2.7-13.71,4.78-19.15,9.42s-8.68,12.91-5.06,19.08c2.41-5.1,9.52-6.91,14.55-4.36,5.04,2.55,7.8,8.5,7.52,14.14-.65,13.38-17.42,22-29.88,17.07s-19.1-19.64-17.7-32.97c1.4-13.32,9.38-25.16,19-34.49,9.62-9.32,20.97-16.64,31.43-25.01s20.31-18.19,25.39-30.59c5.46-13.34,2.01-32.63-11.97-36.13-6.19-1.55-12.85,.47-19.05-1.04-16.99-4.15-15.63-29.97-3.14-37.96,16.39-10.49,41.21-3.44,53.57,9.92Z" class="cls-6"/><path d="M253.67,242.32c1.11-1.86,2.93-3.95,4.99-3.3,1.45,.46,2.14,2.06,2.65,3.49,4.62,13.02,8.58,26.27,11.86,39.69,13.74-.61,27.56,.56,41,3.45,2.67,.57,5.83,1.72,6.33,4.41,.34,1.86-.8,3.64-1.97,5.12-4.89,6.25-11.12,11.44-18.15,15.12-4.81,2.51-10.66,5.14-11.66,10.47-.51,2.7,.43,5.43,1.35,8.01,2.03,5.68,4.07,11.37,6.1,17.05,1.08,3.01,2.17,6.1,2.21,9.3s-1.16,6.6-3.82,8.38c-4.34,2.91-10.2,.45-14.54-2.47-8.12-5.47-15.18-12.5-20.69-20.59-6.7,8.63-14.39,16.49-22.87,23.38-2.43,1.98-5.52,3.99-8.47,2.94-3.87-1.37-4.3-6.6-3.9-10.69,1.04-10.56,2.98-21.03,5.79-31.26-12.46-5.67-24.13-13.09-34.56-21.96-2.71-2.31-5.6-5.73-4.21-9.01,1.14-2.69,4.49-3.49,7.37-3.96,8.32-1.34,16.65-2.68,24.97-4.02,4.85-.78,12.26-.62,15.62-4.87,3.55-4.49,3.57-12.99,5.34-18.37,2.38-7.21,5.88-13.58,9.25-20.32Z" class="cls-4"/><path d="M272.75,465.17c-35.72,0-71.43-2.73-106.79-8.19-3.61-.56-7.62-1.42-9.61-4.59-1.29-2.07-.57-4.82,.77-6.36,1.14-1.31,2.65-1.71,4.05-1.09l-.41,.91c-1.36-.61-2.39,.26-2.89,.83-1.12,1.28-1.68,3.57-.68,5.17,1.76,2.82,5.52,3.61,8.91,4.13,60.6,9.35,122.22,10.69,183.16,3.98l.11,.99c-25.47,2.8-51.06,4.2-76.64,4.2Z" class="cls-2"/></g></svg>